<svg width="500" height="500" viewBox="0 0 500 500" fill="none" xmlns="http://www.w3.org/2000/svg">
<rect width="500" height="500" rx="25" fill="#0A0D14"/>
<rect x="120.42" y="204" width="9.25926" height="92.5926" rx="2" fill="white"/>
<rect x="88.321" y="204" width="9.25926" height="92.5926" rx="2" fill="white"/>
<rect x="59" y="230.852" width="9.25926" height="77.1605" rx="2" transform="rotate(-90 59 230.852)" fill="white"/>
<rect x="81.8395" y="279" width="9.25926" height="77.1605" rx="2" transform="rotate(-90 81.8395 279)" fill="white"/>
<rect x="70.4197" y="254.926" width="9.25926" height="77.1605" rx="2" transform="rotate(-90 70.4197 254.926)" fill="white"/>
<path d="M186.403 268V231.636H198.69C201.531 231.636 203.863 232.122 205.686 233.092C207.509 234.051 208.858 235.371 209.734 237.052C210.61 238.733 211.048 240.644 211.048 242.787C211.048 244.929 210.61 246.829 209.734 248.487C208.858 250.144 207.515 251.446 205.704 252.393C203.893 253.328 201.579 253.795 198.761 253.795H188.818V249.818H198.619C200.561 249.818 202.123 249.534 203.307 248.966C204.502 248.398 205.366 247.593 205.899 246.551C206.444 245.498 206.716 244.243 206.716 242.787C206.716 241.331 206.444 240.058 205.899 238.969C205.355 237.88 204.485 237.04 203.289 236.448C202.094 235.844 200.513 235.543 198.548 235.543H190.807V268H186.403ZM203.52 251.665L212.469 268H207.355L198.548 251.665H203.52ZM219.877 268H215.261L228.613 231.636H233.159L246.511 268H241.894L231.028 237.389H230.744L219.877 268ZM221.582 253.795H240.19V257.702H221.582V253.795ZM266.095 231.636H270.499V257.631C270.499 259.951 270.073 261.922 269.22 263.543C268.368 265.165 267.167 266.396 265.616 267.237C264.065 268.077 262.236 268.497 260.129 268.497C258.141 268.497 256.371 268.136 254.82 267.414C253.27 266.68 252.051 265.638 251.163 264.289C250.275 262.94 249.831 261.336 249.831 259.477H254.164C254.164 260.507 254.418 261.407 254.927 262.176C255.448 262.934 256.158 263.526 257.058 263.952C257.957 264.378 258.981 264.591 260.129 264.591C261.396 264.591 262.473 264.325 263.361 263.792C264.249 263.259 264.923 262.478 265.385 261.448C265.859 260.406 266.095 259.134 266.095 257.631V231.636ZM280.815 268H276.198L289.551 231.636H294.096L307.448 268H302.832L291.965 237.389H291.681L280.815 268ZM282.519 253.795H301.127V257.702H282.519V253.795ZM313.112 268V231.636H325.399C328.24 231.636 330.572 232.122 332.395 233.092C334.218 234.051 335.567 235.371 336.443 237.052C337.319 238.733 337.757 240.644 337.757 242.787C337.757 244.929 337.319 246.829 336.443 248.487C335.567 250.144 334.224 251.446 332.413 252.393C330.602 253.328 328.288 253.795 325.47 253.795H315.527V249.818H325.328C327.27 249.818 328.832 249.534 330.016 248.966C331.211 248.398 332.075 247.593 332.608 246.551C333.153 245.498 333.425 244.243 333.425 242.787C333.425 241.331 333.153 240.058 332.608 238.969C332.064 237.88 331.194 237.04 329.998 236.448C328.802 235.844 327.222 235.543 325.257 235.543H317.516V268H313.112ZM330.229 251.665L339.178 268H334.064L325.257 251.665H330.229ZM343.106 235.543V231.636H370.379V235.543H358.944V268H354.541V235.543H343.106ZM374.418 268H369.802L383.154 231.636H387.7L401.052 268H396.435L385.569 237.389H385.285L374.418 268ZM376.123 253.795H394.731V257.702H376.123V253.795ZM435.551 231.636V268H431.29L411.474 239.449H411.119V268H406.716V231.636H410.977L430.864 260.259H431.219V231.636H435.551Z" fill="white"/>
</svg>
